<?xml version="1.0" encoding="UTF-8" standalone="no"?>
<!-- Created with Inkscape (http://www.inkscape.org/) -->

<svg
   xmlns:dc="http://purl.org/dc/elements/1.1/"
   xmlns:cc="http://creativecommons.org/ns#"
   xmlns:rdf="http://www.w3.org/1999/02/22-rdf-syntax-ns#"
   xmlns:svg="http://www.w3.org/2000/svg"
   xmlns="http://www.w3.org/2000/svg"
   xmlns:sodipodi="http://sodipodi.sourceforge.net/DTD/sodipodi-0.dtd"
   xmlns:inkscape="http://www.inkscape.org/namespaces/inkscape"
   width="52.89777mm"
   height="31.353125mm"
   viewBox="0 0 52.89777 31.353125"
   version="1.1"
   id="svg8"
   inkscape:version="0.92.4 (5da689c313, 2019-01-14)"
   sodipodi:docname="vlajka01.svg">
  <defs
     id="defs2" />
  <sodipodi:namedview
     id="base"
     pagecolor="#ffffff"
     bordercolor="#666666"
     borderopacity="1.0"
     inkscape:pageopacity="0.0"
     inkscape:pageshadow="2"
     inkscape:zoom="2"
     inkscape:cx="27.285338"
     inkscape:cy="85.759665"
     inkscape:document-units="mm"
     inkscape:current-layer="layer1"
     showgrid="false"
     inkscape:window-width="1920"
     inkscape:window-height="986"
     inkscape:window-x="3829"
     inkscape:window-y="425"
     inkscape:window-maximized="1"
     fit-margin-top="0"
     fit-margin-left="0"
     fit-margin-right="0"
     fit-margin-bottom="0" />
  <metadata
     id="metadata5">
    <rdf:RDF>
      <cc:Work
         rdf:about="">
        <dc:format>image/svg+xml</dc:format>
        <dc:type
           rdf:resource="http://purl.org/dc/dcmitype/StillImage" />
        <dc:title></dc:title>
      </cc:Work>
    </rdf:RDF>
  </metadata>
  <g
     inkscape:label="Vrstva 1"
     inkscape:groupmode="layer"
     id="layer1"
     transform="translate(-117.22932,-93.516512)">
    <rect
       id="rect3721"
       width="52.633186"
       height="31.088541"
       x="117.36161"
       y="93.648804"
       style="fill:#ffffff;stroke:#000000;stroke-width:0.26458332" />
    <rect
       id="rect3721-6"
       width="52.372276"
       height="12.179222"
       x="117.4918"
       y="103.40413"
       style="fill:#000080;stroke-width:0.1651935" />
    <rect
       id="rect3721-6-8"
       width="52.366081"
       height="10.869602"
       x="117.4945"
       y="113.73486"
       style="fill:#d40000;stroke-width:0.15605019" />
    <path
       style="fill:#d40000;stroke:#000000;stroke-width:0.26458332px;stroke-linecap:butt;stroke-linejoin:miter;stroke-opacity:1"
       d="m 124.27365,101.25848 12.53494,0.14032 c 0,0 0.071,0.98174 0.0935,1.47332 0.0504,1.09843 0.0831,2.1979 0.0935,3.29744 0.008,0.8341 0.0648,1.69606 -0.0234,2.50231 -0.11799,1.0788 -0.29865,2.0793 -0.70158,3.08696 -0.28254,0.70656 -1.12254,1.98782 -1.12254,1.98782 0,0 -0.63263,0.84096 -1.0056,1.19269 -0.57885,0.5459 -1.21571,1.02185 -1.87088,1.47332 -0.53127,0.36609 -1.70719,0.91206 -1.70719,0.91206 0,0 -1.08645,-0.51644 -1.59025,-0.8419 -0.70465,-0.45521 -1.3978,-0.94713 -1.98782,-1.54348 -0.54389,-0.54973 -0.98913,-1.19436 -1.40316,-1.8475 -0.33415,-0.52713 -0.61165,-1.14173 -0.81852,-1.73057 -0.23968,-0.68225 -0.38226,-1.33992 -0.46772,-2.05798 -0.0885,-0.74375 -0.078,-1.49622 -0.0935,-2.24506 -0.02,-0.95862 -0.0115,-1.91773 0,-2.87649 0.0117,-0.97463 0.0702,-2.92326 0.0702,-2.92326 z"
       id="path3766"
       inkscape:connector-curvature="0"
       sodipodi:nodetypes="ccsasscsscsssssssc" />
    <path
       style="fill:none;stroke:#000000;stroke-width:0.26458332px;stroke-linecap:butt;stroke-linejoin:miter;stroke-opacity:1"
       d="m 125.98083,113.69988 c 0,0 0.42611,-1.47596 1.05237,-1.77734 0.60499,-0.29115 1.70719,0.39756 1.70719,0.39756 0,0 1.02488,-1.47913 1.8475,-1.49671 0.80334,-0.0172 1.87089,1.37978 1.87089,1.37978 0,0 1.07302,-0.56875 1.63702,-0.39757 0.68334,0.20741 1.28624,1.5201 1.28624,1.5201 l -1.59026,2.0112 -3.22728,1.98782 -2.47892,-1.49671 z"
       id="path3768"
       inkscape:connector-curvature="0"
       sodipodi:nodetypes="cscscsccccc" />
    <path
       style="fill:none;stroke:#000000;stroke-width:0.26458332px;stroke-linecap:butt;stroke-linejoin:miter;stroke-opacity:1"
       d="m 129.93308,111.10402 v -2.36199 l -3.08696,0.14031 v -1.87088 l 3.04019,0.3274 0.0702,-1.47332 -2.362,0.25725 0.0468,-1.91766 2.26845,0.30402 -0.25724,-2.31523 h 1.82411 l -0.1637,2.24507 2.45554,-0.25725 -0.0468,1.8475 -2.38538,-0.30402 -0.0468,1.63703 3.11035,-0.37418 v 1.96443 l -3.2039,-0.28063 0.0935,2.36199 -0.8419,-0.23386 z"
       id="path3770"
       inkscape:connector-curvature="0" />
    <path
       style="fill:none;stroke:#ffffff;stroke-width:0.26458332px;stroke-linecap:butt;stroke-linejoin:miter;stroke-opacity:1"
       d="m 124.58638,101.49234 12.53494,0.14032 c 0,0 0.071,0.98174 0.0935,1.47332 0.0504,1.09843 0.0831,2.1979 0.0935,3.29744 0.008,0.8341 0.0648,1.69606 -0.0234,2.50231 -0.11799,1.0788 -0.29865,2.0793 -0.70158,3.08696 -0.28254,0.70656 -1.12254,1.98782 -1.12254,1.98782 0,0 -0.63263,0.84096 -1.0056,1.19269 -0.57885,0.5459 -1.21571,1.02185 -1.87088,1.47332 -0.53127,0.36609 -1.70719,0.91206 -1.70719,0.91206 0,0 -1.08645,-0.51644 -1.59025,-0.8419 -0.70465,-0.45521 -1.3978,-0.94713 -1.98782,-1.54348 -0.54389,-0.54973 -0.98913,-1.19436 -1.40316,-1.8475 -0.33415,-0.52713 -0.61165,-1.14173 -0.81852,-1.73057 -0.23968,-0.68225 -0.38226,-1.33992 -0.46772,-2.05798 -0.0885,-0.74375 -0.078,-1.49622 -0.0935,-2.24506 -0.02,-0.95862 -0.0115,-1.91773 0,-2.87649 0.0117,-0.97463 0.0702,-2.92326 0.0702,-2.92326 z"
       id="path3766-7"
       inkscape:connector-curvature="0"
       sodipodi:nodetypes="ccsasscsscsssssssc" />
    <path
       style="fill:#000080;stroke:#ffffff;stroke-width:0.26458332px;stroke-linecap:butt;stroke-linejoin:miter;stroke-opacity:1"
       d="m 126.29356,113.93374 c 0,0 0.42611,-1.47596 1.05237,-1.77734 0.60499,-0.29115 1.70719,0.39756 1.70719,0.39756 0,0 1.02488,-1.47913 1.8475,-1.49671 0.80334,-0.0172 1.87089,1.37978 1.87089,1.37978 0,0 1.07302,-0.56875 1.63702,-0.39757 0.68334,0.20741 1.28624,1.5201 1.28624,1.5201 0,0 -0.90826,1.32269 -1.49931,1.8541 -0.97938,0.88058 -3.31823,2.14492 -3.31823,2.14492 0,0 -1.72058,-0.89954 -2.47892,-1.49671 -0.78385,-0.61726 -2.10475,-2.12813 -2.10475,-2.12813 z"
       id="path3768-6"
       inkscape:connector-curvature="0"
       sodipodi:nodetypes="cscscscscsc" />
    <path
       style="fill:none;stroke:#ffffff;stroke-width:0.26458332px;stroke-linecap:butt;stroke-linejoin:miter;stroke-opacity:1"
       d="m 130.24581,111.33788 v -2.36199 l -3.08696,0.14031 v -1.87088 l 3.04019,0.3274 0.0702,-1.47332 -2.362,0.25725 0.0468,-1.91766 2.26845,0.30402 -0.25724,-2.31523 h 1.82411 l -0.1637,2.24507 2.45554,-0.25725 -0.0468,1.8475 -2.38538,-0.30402 -0.0468,1.63703 3.11035,-0.37418 v 1.96443 l -3.2039,-0.28063 0.0935,2.36199 -0.8419,-0.23386 z"
       id="path3770-0"
       inkscape:connector-curvature="0" />
  </g>
</svg>
