<?xml version="1.0" encoding="UTF-8" standalone="no"?>
<!-- Created with Inkscape (http://www.inkscape.org/) -->

<svg
   xmlns:dc="http://purl.org/dc/elements/1.1/"
   xmlns:cc="http://creativecommons.org/ns#"
   xmlns:rdf="http://www.w3.org/1999/02/22-rdf-syntax-ns#"
   xmlns:svg="http://www.w3.org/2000/svg"
   xmlns="http://www.w3.org/2000/svg"
   xmlns:sodipodi="http://sodipodi.sourceforge.net/DTD/sodipodi-0.dtd"
   xmlns:inkscape="http://www.inkscape.org/namespaces/inkscape"
   width="52.89777mm"
   height="31.353125mm"
   viewBox="0 0 52.89777 31.353125"
   version="1.1"
   id="svg8"
   inkscape:version="0.92.4 (5da689c313, 2019-01-14)"
   sodipodi:docname="vlajka02.svg">
  <defs
     id="defs2" />
  <sodipodi:namedview
     id="base"
     pagecolor="#ffffff"
     bordercolor="#666666"
     borderopacity="1.0"
     inkscape:pageopacity="0.0"
     inkscape:pageshadow="2"
     inkscape:zoom="4"
     inkscape:cx="182.72211"
     inkscape:cy="68.191996"
     inkscape:document-units="mm"
     inkscape:current-layer="layer1"
     showgrid="false"
     inkscape:window-width="1920"
     inkscape:window-height="986"
     inkscape:window-x="3829"
     inkscape:window-y="425"
     inkscape:window-maximized="1"
     fit-margin-top="0"
     fit-margin-left="0"
     fit-margin-right="0"
     fit-margin-bottom="0" />
  <metadata
     id="metadata5">
    <rdf:RDF>
      <cc:Work
         rdf:about="">
        <dc:format>image/svg+xml</dc:format>
        <dc:type
           rdf:resource="http://purl.org/dc/dcmitype/StillImage" />
        <dc:title></dc:title>
      </cc:Work>
    </rdf:RDF>
  </metadata>
  <g
     inkscape:label="Vrstva 1"
     inkscape:groupmode="layer"
     id="layer1"
     transform="translate(-117.22932,-93.516512)">
    <rect
       id="rect3721"
       width="52.633186"
       height="31.088541"
       x="117.36161"
       y="93.648804"
       style="fill:#000080;stroke:#000000;stroke-width:0.26458332" />
    <path
       style="fill:#ffffff;stroke:#000000;stroke-width:0.26458332px;stroke-linecap:butt;stroke-linejoin:miter;stroke-opacity:1"
       d="m 123.64547,93.582658 16.00729,9.988022 0.19843,-10.318751 8.59896,-0.330729 -0.52916,0.595312 0.0661,9.855728 19.77761,-11.707811 5.82083,0.396875 -2.24896,5.886979 -1.38906,-0.727604 -11.77396,6.879171 h 12.89844 l 0.66146,11.44322 -0.92605,-0.99218 h -11.97239 l 16.63368,9.60346 -8.73895,2.34159 -2.72709,-1.57448 -16.13759,-9.31704 v 9.92667 l -8.1462,-0.19843 v -9.98802 l -19.6604,11.35094 h -6.20262 l 3.05401,-5.2897 12.20046,-7.04394 h -12.60863 v -9.99751 h 12.63385 l -15.04769,-8.687788 1.51051,-5.637299 z"
       id="path3823"
       inkscape:connector-curvature="0" />
    <path
       style="fill:#d40000;stroke:#000000;stroke-width:0.26458332px;stroke-linecap:butt;stroke-linejoin:miter;stroke-opacity:1"
       d="m 117.36161,93.648804 22.02124,12.713966 h 2.18814 V 93.71495 h 4.7625 v 12.83229 l 23.76579,-13.721186 3.354,1.550354 -3.30729,0.661458 -19.50596,11.261774 h 21.62262 v 6.06843 h -17.52864 -2.51354 l 23.35151,13.48201 -5.42599,0.80549 -22.09271,-14.1552 h -1.52136 v 13.75833 l -4.49791,0.0661 -0.52917,-0.92604 v -12.96458 l -26.52144,15.31216 -2.58273,-0.62779 25.01932,-14.44491 h -25.2839 l 3.10886,-5.79571 h 18.9177 1.85209 L 113.30308,93.765389 Z"
       id="path3825"
       inkscape:connector-curvature="0" />
  </g>
</svg>
